<svg version="1.0" xmlns="http://www.w3.org/2000/svg"
 width="100%" height="100%" viewBox="0 0 1088 592"
 preserveAspectRatio="xMidYMid meet">
<metadata>
Created by potrace 1.16, written by Peter Selinger 2001-2019
</metadata>
<g transform="translate(0.000000,592.000000) scale(0.100000,-0.100000)"
fill="#c9a55a" stroke="none">
<path d="M5088 5433 c-25 -27 -48 -59 -51 -73 -8 -32 -178 -200 -203 -200 -10
0 -88 -70 -179 -160 -97 -96 -169 -160 -181 -160 -26 0 -674 -648 -674 -674 0
-12 -71 -91 -180 -201 -104 -104 -180 -189 -180 -199 0 -11 -45 -65 -100 -121
-55 -55 -100 -109 -100 -119 0 -10 -27 -46 -60 -80 -33 -35 -60 -71 -60 -80 0
-10 -27 -46 -60 -80 -33 -35 -60 -70 -60 -78 0 -8 -9 -27 -20 -41 -11 -14 -20
-32 -20 -41 0 -9 -18 -36 -40 -60 -22 -24 -40 -51 -40 -60 0 -9 -18 -36 -40
-60 -22 -24 -40 -50 -40 -58 0 -9 -9 -27 -20 -41 -18 -23 -20 -38 -18 -114 2
-70 6 -88 18 -88 10 0 17 14 20 47 5 38 14 56 43 86 20 21 37 46 37 55 0 10
18 37 40 61 22 24 40 51 40 60 0 10 27 46 60 80 33 35 60 71 60 80 0 10 27 46
60 80 33 35 60 71 60 81 0 10 45 64 100 120 55 55 100 109 100 120 0 10 53 72
120 140 70 71 120 129 120 140 0 13 256 276 700 720 397 397 700 708 700 718
0 10 18 37 40 61 22 24 40 50 40 58 0 9 9 27 21 42 21 26 23 76 4 83 -6 2 -31
-18 -57 -44z"/>
<path d="M6115 5460 c-13 -14 -31 -20 -60 -20 -29 0 -47 -6 -60 -20 -10 -11
-28 -20 -40 -20 -12 0 -30 -9 -40 -20 -10 -11 -28 -20 -40 -20 -12 0 -30 -9
-40 -20 -10 -11 -28 -20 -40 -20 -12 0 -30 -9 -40 -20 -10 -11 -28 -20 -40
-20 -12 0 -30 -9 -40 -20 -10 -11 -28 -20 -40 -20 -12 0 -30 -9 -40 -20 -10
-11 -28 -20 -40 -20 -30 0 -83 -56 -67 -72 9 -9 17 -7 35 10 13 12 32 22 44
22 11 0 28 9 38 20 10 11 28 20 40 20 12 0 30 9 40 20 10 11 28 20 40 20 12 0
30 9 40 20 10 11 28 20 40 20 12 0 30 9 40 20 10 11 28 20 40 20 12 0 30 9 40
20 10 11 28 20 40 20 12 0 30 9 40 20 13 14 31 20 60 20 29 0 47 6 60 20 13
15 33 20 84 22 51 2 66 6 66 18 0 12 -16 16 -71 18 -60 2 -73 0 -89 -18z"/>
<path d="M6435 5460 c-12 -14 -31 -20 -57 -20 -25 0 -50 -8 -65 -20 -15 -11
-41 -20 -60 -20 -20 0 -46 -9 -60 -20 -15 -11 -41 -20 -60 -20 -20 0 -46 -9
-60 -20 -14 -11 -32 -20 -40 -20 -8 0 -26 -9 -40 -20 -14 -11 -32 -20 -40 -20
-8 0 -26 -9 -40 -20 -14 -11 -32 -20 -41 -20 -8 0 -34 -18 -58 -40 -24 -22
-51 -40 -60 -40 -9 0 -27 -9 -41 -20 -14 -11 -32 -20 -41 -20 -8 0 -34 -18
-58 -40 -24 -22 -51 -40 -60 -40 -10 0 -45 -27 -80 -60 -34 -33 -70 -60 -80
-60 -10 0 -55 -36 -100 -80 -45 -44 -90 -80 -100 -80 -10 0 -73 -54 -139 -120
-71 -70 -130 -120 -141 -120 -26 0 -394 -369 -394 -394 0 -12 -58 -78 -140
-161 -77 -77 -140 -149 -140 -159 0 -10 -27 -46 -60 -80 -33 -35 -60 -70 -60
-78 0 -8 -9 -27 -20 -41 -11 -14 -20 -32 -20 -40 0 -8 -9 -26 -20 -40 -11 -14
-20 -32 -20 -40 0 -8 -9 -26 -20 -40 -11 -14 -20 -32 -20 -40 0 -8 -9 -26 -20
-40 -11 -14 -20 -40 -20 -60 0 -19 -9 -45 -20 -60 -18 -22 -20 -40 -20 -169
l0 -144 68 -67 c40 -39 76 -67 88 -67 12 0 29 -9 39 -20 17 -19 29 -20 129
-18 91 2 111 6 111 18 0 12 -20 16 -106 18 l-106 3 -72 73 -71 74 0 90 c0 74
3 94 20 115 11 14 20 40 20 60 0 19 9 45 20 60 11 14 20 32 20 40 0 8 9 26 20
40 11 14 20 32 20 40 0 8 9 26 20 40 11 14 20 33 20 42 0 9 27 45 60 79 33 35
60 71 60 80 0 10 26 45 59 79 32 34 61 73 64 87 8 34 736 760 762 760 11 0 63
44 120 100 56 55 110 100 120 100 11 0 65 45 120 100 56 55 110 100 120 100
10 0 46 27 81 60 34 33 70 60 80 60 9 0 36 18 60 40 24 22 51 40 60 40 9 0 36
18 60 40 24 22 51 40 60 40 9 0 27 9 41 20 14 11 32 20 40 20 8 0 26 9 40 20
14 11 32 20 40 20 8 0 26 9 40 20 15 11 41 20 60 20 20 0 46 9 60 20 14 11 33
20 43 20 9 0 25 9 35 20 14 16 33 20 104 22 68 2 86 6 86 18 0 12 -18 16 -91
18 -80 2 -92 0 -109 -18z"/>
<path d="M4615 5200 c-47 -48 -88 -80 -100 -80 -13 0 -78 -58 -180 -160 -101
-101 -167 -160 -180 -160 -13 0 -184 -164 -500 -480 -316 -316 -487 -480 -500
-480 -13 0 -73 -52 -160 -140 -88 -88 -147 -140 -160 -140 -12 0 -52 -32 -100
-80 -45 -45 -88 -80 -99 -80 -11 0 -47 -27 -82 -60 -34 -33 -70 -60 -80 -60
-9 0 -36 -18 -60 -40 -24 -22 -51 -40 -60 -40 -9 0 -36 -18 -60 -40 -24 -22
-51 -40 -60 -40 -9 0 -36 -18 -60 -40 -24 -22 -51 -40 -60 -40 -9 0 -27 -9
-41 -20 -14 -11 -32 -20 -41 -20 -8 0 -34 -18 -58 -40 -24 -22 -52 -40 -62
-40 -10 0 -27 -9 -37 -20 -12 -14 -31 -20 -57 -20 -25 0 -50 -8 -65 -20 -14
-11 -32 -20 -40 -20 -8 0 -26 -9 -40 -20 -19 -14 -41 -20 -80 -20 -40 0 -62
-6 -80 -20 -24 -19 -41 -20 -233 -20 -192 0 -209 1 -233 20 -14 11 -32 20 -40
20 -8 0 -26 9 -40 20 -14 11 -33 20 -42 20 -22 0 -85 63 -85 85 0 9 -9 28 -20
42 -26 34 -27 111 -2 144 11 13 22 36 26 51 4 19 15 30 34 34 15 4 38 15 51
26 13 10 30 18 38 18 8 0 26 9 40 20 15 12 41 20 63 20 24 0 43 7 55 20 15 16
33 20 124 22 86 2 106 6 106 18 0 12 -20 16 -111 18 -100 2 -112 1 -129 -18
-15 -17 -30 -20 -97 -20 -65 0 -85 -4 -105 -20 -14 -11 -32 -20 -40 -20 -8 0
-26 -9 -40 -20 -14 -11 -33 -20 -42 -20 -21 0 -151 -130 -151 -151 0 -9 -9
-28 -20 -42 -27 -34 -27 -100 0 -134 11 -14 20 -33 20 -42 0 -21 90 -111 111
-111 9 0 28 -9 42 -20 18 -14 40 -20 80 -20 39 0 61 -6 80 -20 23 -18 40 -20
227 -20 187 0 204 2 227 20 21 16 41 20 100 20 60 0 80 4 100 20 15 11 41 20
60 20 20 0 46 9 60 20 14 11 32 20 40 20 8 0 26 9 40 20 14 11 33 20 43 20 9
0 25 9 35 20 12 14 31 20 58 20 33 0 48 7 83 40 24 22 51 40 60 40 9 0 27 9
41 20 14 11 32 20 41 20 8 0 34 18 58 40 24 22 51 40 60 40 9 0 36 18 60 40
24 22 51 40 60 40 9 0 36 18 60 40 24 22 52 40 62 40 9 0 53 36 97 80 48 48
88 80 100 80 13 0 72 52 160 140 87 88 147 140 160 140 13 0 191 170 520 500
329 329 507 500 520 500 13 0 86 66 200 180 115 115 187 180 200 180 26 0 240
213 231 229 -4 6 -10 11 -14 11 -4 0 -43 -36 -87 -80z"/>
<path d="M4995 4820 c-34 -35 -68 -60 -80 -60 -13 0 -58 -38 -120 -100 -61
-61 -108 -100 -120 -100 -28 0 -1115 -1087 -1115 -1115 0 -13 -80 -100 -220
-240 -140 -140 -220 -227 -220 -240 0 -12 -54 -74 -142 -162 -113 -113 -140
-145 -130 -155 10 -10 43 18 162 137 100 100 150 157 150 171 0 26 16 41 50
46 18 2 26 10 28 29 2 18 63 85 202 224 131 131 200 207 200 220 0 27 18 45
45 45 26 0 75 49 75 76 0 27 818 844 845 844 13 0 73 53 160 140 88 89 147
140 160 140 25 0 160 133 151 149 -12 18 -19 14 -81 -49z"/>
<path d="M10205 4390 c-3 -5 4 -23 16 -40 l23 -30 -22 -30 c-12 -16 -22 -37
-22 -47 0 -25 -379 -403 -405 -403 -13 0 -62 -41 -130 -110 -87 -87 -107 -112
-97 -122 10 -10 29 5 95 70 48 48 91 82 102 82 12 0 60 40 120 100 61 61 108
100 120 100 24 0 235 207 235 231 0 9 9 28 20 42 11 14 20 32 20 40 0 8 10 26
21 41 l21 27 -28 30 c-28 29 -76 40 -89 19z"/>
<path d="M9995 4300 c-34 -34 -68 -60 -80 -60 -27 0 -435 -407 -435 -434 0
-12 -58 -78 -140 -161 -78 -78 -140 -149 -140 -159 0 -10 -35 -55 -79 -100
-43 -44 -81 -94 -85 -109 -5 -20 -14 -29 -35 -33 -17 -4 -55 -33 -97 -75 -67
-67 -67 -69 -49 -89 17 -19 17 -21 2 -38 -10 -10 -17 -25 -17 -34 0 -8 -9 -27
-21 -42 -30 -38 -23 -80 14 -84 17 -2 36 3 47 13 10 9 30 20 46 24 20 5 30 16
36 39 7 25 16 34 37 38 41 8 250 219 233 236 -9 9 -16 8 -31 -6 -21 -19 -41
-14 -41 11 0 8 36 52 80 97 44 45 80 89 80 98 0 8 9 27 20 41 11 14 20 33 20
42 0 9 27 45 60 79 33 35 60 71 60 81 0 10 45 64 100 120 55 56 100 110 100
120 0 11 82 101 201 221 177 177 214 224 181 224 -4 0 -34 -27 -67 -60z"/>
<path d="M4675 3620 c-13 -14 -30 -20 -59 -20 -39 0 -47 -6 -151 -110 -87 -87
-107 -112 -97 -122 10 -10 34 9 115 90 96 96 105 102 143 102 28 0 47 6 59 19
11 13 33 21 64 23 33 2 46 7 46 18 0 11 -14 16 -51 18 -40 2 -54 -1 -69 -18z"/>
<path d="M4885 3589 c-4 -6 2 -21 14 -33 18 -19 21 -35 21 -113 0 -75 -3 -95
-20 -116 -11 -14 -20 -32 -20 -40 0 -8 -9 -26 -20 -40 -11 -14 -20 -33 -20
-43 0 -26 -299 -324 -326 -324 -11 0 -29 -9 -38 -19 -10 -11 -30 -21 -45 -23
-37 -4 -34 -32 5 -36 20 -2 36 4 49 18 10 11 28 20 40 20 12 0 30 9 40 20 10
11 27 20 38 20 11 0 39 18 63 40 24 22 52 40 62 40 23 0 112 90 112 113 0 10
18 37 40 61 22 24 40 50 40 58 0 9 9 27 20 41 18 22 20 40 20 169 l0 144 -28
27 c-31 30 -38 32 -47 16z"/>
<path d="M5351 3340 c-13 -11 -30 -20 -38 -20 -8 0 -26 -9 -40 -20 -14 -11
-32 -20 -40 -20 -8 0 -26 -9 -40 -20 -14 -11 -32 -20 -40 -20 -8 0 -26 -9 -40
-20 -14 -11 -33 -20 -41 -20 -9 0 -29 -12 -44 -27 -21 -20 -28 -36 -28 -64 0
-21 -8 -47 -20 -62 -31 -40 -27 -106 9 -141 26 -25 34 -27 97 -24 52 2 69 7
69 17 0 8 -13 18 -29 22 -35 10 -46 24 -46 63 0 24 22 52 127 158 72 72 139
131 153 135 14 3 32 12 41 20 9 8 30 18 45 22 49 13 36 36 -21 38 -38 2 -56
-2 -74 -17z"/>
<path d="M5613 3320 c-23 -22 -51 -40 -61 -40 -23 0 -68 -47 -75 -81 -8 -32
-139 -159 -164 -159 -10 0 -41 -22 -68 -50 -38 -39 -46 -53 -37 -62 9 -9 21
-3 52 27 34 33 42 37 50 25 5 -8 10 -22 10 -31 0 -8 13 -27 28 -42 22 -21 38
-27 74 -27 28 0 50 6 58 15 7 8 27 19 44 23 40 11 40 33 0 44 -42 11 -50 35
-24 70 11 15 20 35 20 44 0 9 45 63 101 119 86 88 100 107 97 131 -2 24 -8 29
-33 32 -23 2 -39 -7 -72 -38z"/>
<path d="M6871 3340 c-13 -11 -31 -20 -40 -20 -20 0 -111 -90 -111 -110 0 -8
-4 -22 -10 -30 -7 -12 -12 -11 -30 5 -21 19 -21 19 -143 -103 -67 -67 -128
-122 -134 -122 -21 0 -43 31 -43 62 0 25 15 46 80 112 44 45 80 89 80 98 0 8
9 27 21 42 27 34 17 46 -39 46 -47 0 -49 -1 -155 -108 -59 -59 -107 -114 -107
-122 0 -8 -4 -22 -10 -30 -7 -12 -12 -11 -30 5 -15 14 -23 16 -32 7 -9 -9 -6
-17 10 -35 15 -16 22 -36 22 -63 0 -31 6 -46 28 -67 36 -34 101 -37 139 -7 14
11 33 20 43 20 9 0 25 9 35 20 10 11 27 20 39 20 11 0 37 16 57 36 21 20 42
33 48 30 6 -4 11 -26 11 -50 0 -33 6 -48 28 -69 36 -34 101 -37 139 -7 14 11
33 20 42 20 10 0 30 14 46 30 22 23 26 33 17 42 -9 9 -17 7 -35 -10 -24 -23
-71 -29 -97 -12 -12 8 -8 16 23 48 20 21 37 46 37 56 0 10 27 46 60 80 33 35
60 70 60 80 0 9 18 36 41 61 22 24 38 49 34 55 -11 18 -98 11 -124 -10z"/>
<path d="M7300 3325 c-19 -20 -46 -38 -60 -42 -14 -3 -55 -35 -92 -71 -60 -59
-68 -71 -68 -104 0 -31 -8 -47 -40 -82 -48 -52 -51 -82 -12 -119 22 -21 38
-27 74 -27 28 0 50 6 58 15 7 8 27 19 44 23 39 10 40 33 2 43 -28 8 -46 24
-46 42 0 5 27 37 60 71 33 35 60 71 60 80 0 10 27 46 61 81 49 52 60 68 57 92
-2 23 -8 29 -33 31 -24 2 -38 -5 -65 -33z"/>
<path d="M7980 3245 c-70 -71 -125 -118 -141 -122 -15 -3 -53 -32 -85 -64 -32
-32 -67 -59 -78 -59 -11 0 -30 -9 -42 -21 -30 -28 -61 -18 -72 24 -8 31 -10
32 -63 32 l-54 0 0 -75 0 -75 48 -3 c36 -2 54 2 74 17 14 12 33 21 43 21 9 0
25 9 35 20 10 11 27 20 39 20 11 0 37 16 57 36 21 20 42 33 48 30 6 -4 11 -26
11 -50 0 -33 6 -48 28 -69 31 -30 73 -35 92 -12 7 8 27 19 44 23 39 10 40 33
2 43 -28 8 -46 24 -46 42 0 5 27 37 60 71 33 35 60 71 60 80 0 10 27 46 61 81
49 52 60 68 57 92 -2 23 -8 29 -33 31 -26 2 -44 -11 -145 -113z"/>
<path d="M8595 3340 c-12 -14 -31 -20 -57 -20 -25 0 -50 -8 -65 -20 -14 -11
-32 -20 -40 -20 -8 0 -26 -9 -40 -20 -14 -11 -33 -20 -41 -20 -8 0 -43 -27
-78 -60 -34 -33 -71 -60 -81 -60 -10 0 -50 -31 -88 -70 -54 -55 -67 -72 -57
-82 10 -10 25 0 72 47 70 69 80 66 80 -26 0 -47 4 -59 28 -82 22 -21 38 -27
74 -27 26 0 50 4 53 10 3 5 -4 23 -16 40 l-23 30 22 30 c12 16 22 37 22 46 0
10 64 82 141 160 80 80 138 147 135 153 -10 16 -21 14 -41 -9z"/>
<path d="M9395 3340 c-10 -11 -28 -20 -40 -20 -30 0 -83 -56 -67 -72 9 -9 17
-7 35 10 13 12 32 22 44 22 11 0 28 9 38 20 51 57 103 -31 55 -93 -11 -14 -20
-33 -20 -43 0 -9 -50 -68 -112 -131 -94 -95 -117 -113 -142 -113 -60 0 -65 15
-21 60 30 31 36 43 27 52 -9 9 -17 7 -34 -9 -13 -12 -34 -23 -48 -25 -23 -3
-25 -7 -25 -58 l0 -55 71 -3 c60 -2 73 0 89 18 15 17 30 20 95 20 64 0 80 -3
95 -20 10 -11 27 -20 39 -20 12 0 50 -29 93 -72 l73 -72 0 -137 c0 -123 -2
-138 -20 -154 -11 -10 -20 -28 -20 -39 0 -28 -138 -166 -166 -166 -11 0 -38
-18 -59 -40 -22 -22 -49 -40 -60 -40 -12 0 -30 -9 -40 -20 -13 -14 -31 -20
-60 -20 -29 0 -47 -6 -60 -20 -12 -14 -31 -20 -57 -20 -25 0 -50 -8 -65 -20
-21 -16 -41 -20 -100 -20 -60 0 -80 -4 -100 -20 -25 -19 -41 -20 -413 -20
-372 0 -388 1 -413 20 -22 18 -40 20 -160 20 -119 0 -137 2 -160 20 -21 17
-40 20 -120 20 -79 0 -98 3 -120 20 -21 17 -40 20 -125 20 -86 0 -101 3 -117
20 -16 18 -31 20 -120 20 -90 0 -104 2 -120 20 -16 18 -29 20 -89 18 -55 -2
-71 -6 -71 -18 0 -12 15 -16 66 -18 51 -2 71 -7 84 -22 16 -17 32 -20 120 -20
89 0 104 -2 120 -20 15 -17 31 -20 95 -20 62 0 82 -4 103 -20 20 -16 40 -20
100 -20 59 0 79 -4 100 -20 21 -17 40 -20 119 -20 118 0 135 -10 90 -50 -30
-28 -38 -30 -108 -30 -61 0 -81 -4 -101 -20 -19 -14 -41 -20 -80 -20 -40 0
-62 -6 -80 -20 -15 -11 -41 -20 -60 -20 -20 0 -46 -9 -60 -20 -15 -11 -41 -20
-60 -20 -20 0 -46 -9 -60 -20 -15 -11 -41 -20 -60 -20 -20 0 -46 -9 -60 -20
-15 -11 -41 -20 -60 -20 -20 0 -46 -9 -60 -20 -20 -16 -41 -20 -96 -20 l-69 0
-82 80 c-45 44 -90 80 -99 80 -10 0 -37 18 -61 40 -33 31 -51 40 -78 40 -20 0
-46 9 -61 20 -14 11 -32 20 -40 20 -8 0 -26 9 -40 20 -14 11 -40 20 -60 20
-19 0 -45 9 -60 20 -18 14 -40 20 -80 20 -39 0 -61 6 -80 20 -18 14 -40 20
-80 20 -39 0 -61 6 -80 20 -22 18 -40 20 -160 20 -119 0 -137 2 -160 20 -24
19 -40 20 -407 20 -367 0 -383 -1 -407 -20 -22 -17 -41 -20 -120 -20 -80 0
-99 -3 -120 -20 -21 -16 -41 -20 -100 -20 -60 0 -80 -4 -100 -20 -15 -11 -41
-20 -60 -20 -20 0 -46 -9 -60 -20 -15 -11 -41 -20 -60 -20 -20 0 -46 -9 -60
-20 -14 -11 -32 -20 -40 -20 -8 0 -26 -9 -40 -20 -15 -11 -41 -20 -61 -20 -27
0 -45 -9 -78 -40 -24 -22 -51 -40 -61 -40 -22 0 -193 -169 -193 -191 0 -9 -9
-28 -20 -42 -18 -22 -20 -40 -20 -167 0 -127 2 -145 20 -167 11 -14 20 -33 20
-42 0 -21 130 -151 151 -151 9 0 28 -9 42 -20 14 -11 32 -20 40 -20 8 0 26 -9
40 -20 14 -11 32 -20 40 -20 8 0 26 -9 40 -20 14 -11 40 -20 60 -20 19 0 45
-9 60 -20 21 -17 40 -20 120 -20 79 0 98 -3 120 -20 24 -19 40 -20 307 -20
267 0 283 1 307 20 22 17 41 20 120 20 80 0 99 3 120 20 21 16 41 20 100 20
60 0 80 4 100 20 15 11 41 20 60 20 20 0 46 9 60 20 15 11 41 20 60 20 20 0
46 9 60 20 15 11 41 20 60 20 20 0 46 9 60 20 15 11 41 20 60 20 20 0 46 9 60
20 14 11 32 20 40 20 8 0 26 9 40 20 15 11 41 20 60 20 20 0 46 9 60 20 14 11
32 20 40 20 8 0 26 9 40 20 15 11 41 20 60 20 20 0 46 9 60 20 14 11 32 20 40
20 8 0 26 9 40 20 15 11 41 20 60 20 20 0 46 9 60 20 14 11 32 20 40 20 8 0
26 9 40 20 15 11 41 20 60 20 20 0 46 9 60 20 14 11 32 20 40 20 8 0 26 9 40
20 39 31 79 26 119 -14 19 -19 34 -42 34 -51 0 -9 9 -28 20 -42 11 -14 20 -32
20 -40 0 -8 9 -26 20 -40 18 -23 20 -41 20 -173 0 -132 -2 -150 -20 -173 -11
-14 -20 -33 -20 -42 0 -9 -26 -44 -59 -78 -32 -34 -61 -74 -65 -89 -4 -19 -15
-30 -34 -34 -15 -4 -55 -33 -89 -65 -34 -33 -69 -59 -78 -59 -9 0 -28 -9 -42
-20 -14 -11 -32 -20 -40 -20 -8 0 -26 -9 -40 -20 -19 -14 -41 -20 -80 -20 -40
0 -62 -6 -80 -20 -24 -19 -41 -20 -233 -20 -192 0 -209 1 -233 20 -14 11 -32
20 -40 20 -8 0 -26 9 -40 20 -14 11 -34 20 -44 20 -25 0 -83 60 -83 86 0 12
-9 29 -19 38 -11 10 -21 30 -23 45 -4 37 -32 34 -36 -5 -2 -20 4 -36 18 -49
11 -10 20 -28 20 -39 0 -25 127 -156 151 -156 9 0 28 -9 42 -20 14 -11 40 -20
60 -20 19 0 45 -9 60 -20 22 -18 40 -20 167 -20 127 0 145 2 167 20 19 14 41
20 80 20 40 0 62 6 80 20 19 14 41 20 80 20 40 0 62 6 80 20 14 11 32 20 41
20 8 0 34 18 58 40 24 22 52 40 61 40 23 0 233 209 233 231 0 9 9 28 20 42 11
14 20 32 20 40 0 8 9 26 20 40 11 14 20 40 20 60 0 19 9 45 20 60 16 20 20 40
20 107 0 67 -4 87 -20 107 -11 15 -20 41 -20 60 0 20 -9 46 -20 60 -11 14 -20
32 -20 40 0 8 -9 26 -20 40 -35 44 -18 113 27 113 8 0 26 9 40 20 15 11 41 20
60 20 20 0 46 9 60 20 14 11 32 20 40 20 8 0 26 9 40 20 15 11 41 20 60 20 20
0 46 9 60 20 15 11 41 20 60 20 20 0 46 9 60 20 19 14 41 20 80 20 40 0 62 6
80 20 19 14 41 20 80 20 40 0 62 6 80 20 21 16 41 20 100 20 60 0 80 4 100 20
24 19 41 20 340 20 300 0 316 1 340 20 22 17 41 20 120 20 80 0 99 3 120 20
19 14 41 20 80 20 40 0 62 6 80 20 14 11 33 20 43 20 9 0 25 9 35 20 13 14 31
20 60 20 29 0 47 6 60 20 10 11 28 20 40 20 12 0 30 9 40 20 10 11 28 20 39
20 29 0 236 208 236 236 0 12 9 29 20 39 18 17 20 31 20 164 l0 146 -88 88
c-53 52 -96 87 -108 87 -11 0 -33 14 -49 30 l-29 30 97 98 97 97 0 66 c0 58
-3 68 -28 92 -25 24 -36 27 -93 27 -53 0 -69 -4 -84 -20z m-3722 -1280 c21
-17 40 -20 120 -20 79 0 98 -3 120 -20 18 -14 40 -20 80 -20 39 0 61 -6 80
-20 18 -14 40 -20 80 -20 39 0 61 -6 80 -20 14 -11 32 -20 40 -20 8 0 26 -9
40 -20 14 -11 32 -20 40 -20 8 0 26 -9 40 -20 14 -11 32 -20 40 -20 8 0 26 -9
40 -20 14 -11 32 -20 41 -20 9 0 36 -18 60 -40 24 -22 51 -40 61 -40 18 0 85
-61 85 -78 0 -16 -29 -42 -47 -42 -8 0 -26 -9 -40 -20 -14 -11 -32 -20 -40
-20 -8 0 -26 -9 -40 -20 -15 -11 -41 -20 -60 -20 -20 0 -46 -9 -60 -20 -14
-11 -32 -20 -40 -20 -8 0 -26 -9 -40 -20 -14 -11 -32 -20 -40 -20 -8 0 -26 -9
-40 -20 -15 -11 -41 -20 -60 -20 -20 0 -46 -9 -60 -20 -14 -11 -32 -20 -40
-20 -8 0 -26 -9 -40 -20 -14 -11 -32 -20 -40 -20 -8 0 -26 -9 -40 -20 -15 -11
-41 -20 -60 -20 -20 0 -46 -9 -60 -20 -14 -11 -32 -20 -40 -20 -8 0 -26 -9
-40 -20 -14 -11 -32 -20 -40 -20 -8 0 -26 -9 -40 -20 -15 -11 -41 -20 -60 -20
-20 0 -46 -9 -60 -20 -15 -11 -41 -20 -60 -20 -20 0 -46 -9 -60 -20 -15 -11
-41 -20 -60 -20 -20 0 -46 -9 -60 -20 -19 -14 -41 -20 -80 -20 -40 0 -62 -6
-80 -20 -21 -16 -41 -20 -100 -20 -60 0 -80 -4 -100 -20 -25 -19 -41 -20 -373
-20 -332 0 -348 1 -373 20 -18 14 -40 20 -80 20 -39 0 -61 6 -80 20 -14 11
-40 20 -60 20 -19 0 -45 9 -60 20 -15 12 -40 20 -62 20 -31 0 -46 9 -98 59
-34 32 -74 61 -89 65 -19 4 -30 15 -34 34 -4 15 -15 38 -26 51 -15 20 -18 42
-18 134 l0 110 127 129 c71 71 139 132 153 135 14 3 36 14 49 25 13 10 30 18
38 18 8 0 26 9 40 20 15 11 41 20 60 20 20 0 46 9 60 20 14 11 32 20 40 20 8
0 26 9 40 20 19 14 41 20 80 20 40 0 62 6 80 20 19 14 41 20 80 20 40 0 62 6
80 20 22 17 41 20 120 20 80 0 99 3 120 20 25 19 41 20 433 20 392 0 408 -1
433 -20z"/>
<path d="M5991 3300 c-13 -11 -30 -20 -38 -20 -8 0 -26 -9 -40 -20 -14 -11
-33 -20 -42 -20 -10 0 -30 -14 -46 -30 -22 -23 -26 -33 -17 -42 9 -9 16 -7 32
7 18 16 23 17 30 5 15 -24 13 -29 -50 -94 -33 -35 -60 -70 -60 -78 0 -8 -9
-27 -21 -42 -12 -15 -19 -37 -17 -53 3 -26 7 -28 52 -31 47 -3 51 -1 98 45 26
26 48 55 48 65 0 10 13 32 29 50 29 32 30 32 49 14 31 -27 42 -12 42 55 0 56
3 62 41 104 31 33 40 50 37 72 -3 26 -6 28 -53 30 -38 2 -56 -2 -74 -17z"/>
<path d="M8727 3314 c-4 -4 -7 -16 -7 -26 0 -10 -18 -38 -40 -62 -22 -24 -40
-50 -40 -58 0 -9 -9 -27 -20 -41 -11 -14 -20 -33 -20 -42 0 -9 -28 -46 -62
-81 -47 -49 -59 -67 -50 -76 9 -9 17 -7 35 10 13 12 31 22 41 22 10 0 29 9 43
20 16 12 41 20 64 20 46 0 57 14 33 41 -17 19 -16 21 40 78 l57 58 -3 69 c-3
69 -3 69 -33 72 -17 2 -34 0 -38 -4z"/>
<path d="M4071 2580 c-21 -18 -39 -20 -158 -20 -120 0 -138 -2 -160 -20 -19
-14 -41 -20 -80 -20 -40 0 -62 -6 -80 -20 -15 -11 -41 -20 -60 -20 -20 0 -46
-9 -60 -20 -15 -11 -41 -20 -60 -20 -20 0 -46 -9 -60 -20 -14 -11 -32 -20 -40
-20 -8 0 -26 -9 -40 -20 -14 -11 -32 -20 -41 -20 -8 0 -34 -18 -58 -40 -24
-22 -52 -40 -62 -40 -25 0 -152 -130 -152 -156 0 -12 -9 -29 -20 -39 -11 -10
-20 -28 -20 -40 0 -12 -9 -30 -20 -40 -11 -10 -20 -28 -20 -40 0 -12 -9 -30
-20 -40 -18 -16 -20 -29 -18 -89 2 -55 6 -71 18 -71 12 0 16 15 18 66 2 51 7
71 22 84 11 10 20 28 20 40 0 12 9 30 20 40 11 10 20 28 20 40 0 26 139 165
165 165 10 0 37 18 61 40 24 22 51 40 60 40 9 0 27 9 41 20 14 11 32 20 40 20
8 0 26 9 40 20 15 11 41 20 60 20 20 0 46 9 60 20 15 11 41 20 60 20 20 0 46
9 60 20 19 14 41 20 80 20 40 0 62 6 80 20 23 18 41 20 180 20 140 0 157 2
180 20 24 19 41 20 233 20 192 0 209 -1 233 -20 23 -19 40 -20 240 -20 199 0
216 -1 240 -20 23 -18 40 -20 180 -20 139 0 157 -2 180 -20 22 -17 40 -20 145
-20 107 0 121 -2 137 -20 17 -18 29 -20 109 -18 73 2 91 6 91 18 0 12 -18 16
-86 18 -71 2 -90 6 -104 22 -16 17 -31 20 -115 20 -82 0 -101 3 -123 20 -22
17 -40 20 -140 20 -99 0 -118 3 -140 20 -22 17 -40 20 -140 20 -99 0 -118 3
-140 20 -23 19 -40 20 -240 20 -199 0 -216 1 -240 20 -23 18 -40 20 -189 20
-147 -1 -165 -3 -187 -20z"/>
</g>
</svg>
