<svg version="1.0" xmlns="http://www.w3.org/2000/svg"
 width="100%" height="100%" viewBox="0 0 1088 592"
 preserveAspectRatio="xMidYMid meet">
<metadata>
Created by potrace 1.16, written by Peter Selinger 2001-2019
</metadata>
<g transform="translate(0.000000,592.000000) scale(0.100000,-0.100000)"
fill="#3d2a1a" stroke="none">
<path d="M4998 5500 c-10 -11 -28 -20 -40 -20 -14 0 -37 -16 -58 -40 -22 -25
-44 -40 -58 -40 -16 0 -49 -25 -102 -80 -52 -53 -86 -80 -101 -80 -13 0 -37
-16 -58 -39 -23 -25 -47 -40 -66 -43 -25 -2 -31 -8 -33 -32 -4 -36 -92 -126
-123 -126 -13 0 -43 -23 -78 -59 -40 -41 -66 -60 -87 -63 -24 -2 -30 -8 -32
-32 -5 -37 -51 -83 -88 -88 -25 -3 -30 -8 -34 -38 -4 -30 -9 -36 -33 -38 -23
-3 -107 -82 -387 -362 -280 -280 -364 -359 -387 -362 -22 -2 -29 -9 -31 -32
-4 -36 -171 -206 -202 -206 -14 0 -57 -36 -120 -100 -65 -66 -106 -100 -120
-100 -14 0 -44 -23 -80 -60 -37 -38 -66 -60 -80 -60 -14 0 -43 -22 -80 -60
-37 -38 -66 -60 -80 -60 -14 0 -43 -22 -80 -60 -38 -40 -66 -60 -81 -60 -15 0
-37 -15 -59 -40 -40 -45 -84 -55 -95 -20 -7 23 -45 27 -45 5 0 -8 9 -19 20
-25 32 -17 25 -40 -12 -40 -26 0 -41 -9 -68 -40 -25 -28 -43 -40 -62 -40 -17
0 -31 -8 -38 -20 -8 -16 -21 -20 -60 -20 -39 0 -52 -4 -60 -20 -8 -16 -21 -20
-60 -20 -39 0 -52 -4 -60 -20 -7 -13 -21 -20 -40 -20 -19 0 -33 -7 -40 -20 -9
-17 -21 -20 -80 -20 -59 0 -71 -3 -80 -20 -10 -19 -21 -20 -160 -20 -139 0
-150 1 -160 20 -8 16 -21 20 -60 20 -39 0 -52 4 -60 20 -6 12 -21 20 -36 20
-35 0 -124 90 -124 125 0 18 6 29 20 32 24 6 27 43 4 43 -9 0 -18 -9 -21 -20
-7 -25 -43 -27 -44 -2 -2 33 2 47 22 61 10 7 19 24 19 38 0 32 51 83 84 83 15
0 30 8 36 20 7 13 21 20 40 20 19 0 33 7 40 20 9 18 21 20 100 20 74 0 91 3
99 18 8 15 30 18 163 22 127 4 153 8 153 20 0 13 -38 15 -272 18 -264 2 -272
2 -283 -18 -8 -16 -21 -20 -60 -20 -39 0 -52 -4 -60 -20 -8 -15 -21 -20 -56
-20 -42 0 -49 -4 -114 -70 -56 -55 -70 -75 -70 -100 0 -23 -5 -30 -19 -30 -10
0 -21 9 -24 20 -3 11 -12 20 -21 20 -23 0 -20 -37 4 -43 18 -5 20 -14 20 -112
0 -106 0 -106 50 -155 33 -34 57 -50 74 -50 15 0 30 -8 36 -20 8 -16 21 -20
60 -20 39 0 52 -4 60 -20 10 -19 21 -20 300 -20 279 0 290 1 300 20 9 17 21
20 80 20 59 0 71 3 80 20 8 16 21 20 60 20 39 0 52 4 60 20 7 13 21 20 40 20
20 0 31 -6 35 -20 8 -27 45 -27 45 0 0 13 -7 20 -20 20 -13 0 -20 7 -20 20 0
17 7 20 53 20 48 0 55 3 87 40 25 28 43 40 62 40 17 0 31 8 38 20 7 13 21 20
40 20 19 0 33 7 40 20 7 12 21 20 38 20 19 0 37 12 62 40 21 24 44 40 57 40
13 0 40 17 62 40 22 22 49 40 61 40 14 0 44 23 80 60 36 38 66 60 80 60 14 0
49 28 100 80 49 50 86 80 99 80 15 0 105 84 281 260 170 171 266 260 280 260
14 0 154 134 419 399 313 313 405 400 428 403 24 2 29 8 33 38 4 30 9 35 34
38 21 3 59 34 147 123 77 77 125 119 139 119 14 0 63 42 140 120 77 78 126
120 140 120 12 0 45 25 81 60 57 57 62 60 109 60 43 0 50 -3 50 -20 0 -11 -4
-20 -10 -20 -5 0 -17 -9 -27 -19 -10 -11 -31 -21 -48 -23 -25 -2 -31 -8 -33
-31 -4 -37 -211 -247 -243 -247 -13 0 -50 -30 -98 -79 -56 -57 -86 -80 -107
-83 -24 -2 -30 -8 -32 -32 -5 -39 -171 -206 -206 -206 -16 0 -27 7 -31 20 -3
11 -15 20 -26 20 -26 0 -25 -37 2 -45 16 -5 19 -14 17 -38 -3 -27 -8 -33 -32
-35 -36 -4 -126 -92 -126 -122 0 -28 -52 -80 -79 -80 -29 0 -281 -252 -281
-280 0 -31 -131 -158 -166 -162 -27 -3 -29 -6 -32 -52 -3 -47 -6 -51 -123
-167 -79 -78 -119 -125 -119 -140 0 -13 -23 -43 -60 -79 -38 -37 -60 -66 -60
-80 0 -14 -22 -43 -60 -80 -38 -37 -60 -66 -60 -80 0 -14 -22 -43 -60 -80 -43
-41 -60 -65 -60 -84 0 -15 -8 -30 -20 -36 -12 -7 -20 -21 -20 -38 0 -19 -12
-37 -40 -62 -28 -25 -40 -43 -40 -62 0 -17 -8 -31 -20 -38 -16 -8 -20 -21 -20
-60 0 -39 -4 -52 -20 -60 -13 -7 -20 -21 -20 -40 0 -19 -7 -33 -20 -40 -33
-18 -25 -40 15 -40 24 0 37 -6 45 -20 18 -34 60 -25 100 20 22 25 44 40 58 40
30 0 82 51 82 80 0 15 58 79 180 201 99 98 180 184 180 189 0 6 9 10 20 10 11
0 20 5 20 12 0 6 36 46 79 88 58 55 80 84 83 106 2 24 8 30 32 32 35 4 126 92
126 122 0 13 108 128 320 340 176 176 320 325 320 330 0 6 9 10 20 10 11 0 20
5 20 11 0 6 76 86 169 179 127 126 177 169 198 172 24 2 29 9 33 38 4 30 9 35
34 38 21 3 47 22 87 63 36 37 65 59 79 59 14 0 43 22 80 60 41 43 65 60 84 60
15 0 30 8 36 20 6 12 21 20 36 20 19 0 43 17 84 60 36 37 66 60 80 60 12 0 39
18 61 40 25 25 49 40 64 40 14 0 29 8 35 20 6 12 21 20 35 20 14 0 33 9 42 20
10 11 28 20 40 20 13 0 31 9 40 20 10 11 28 20 40 20 13 0 31 9 40 20 10 11
30 20 45 20 17 0 31 7 38 21 9 15 19 19 43 17 42 -4 43 -31 1 -38 -18 -3 -44
-20 -65 -42 -20 -23 -43 -38 -57 -38 -12 0 -30 -9 -39 -20 -10 -11 -28 -20
-40 -20 -13 0 -31 -9 -40 -20 -10 -11 -28 -20 -40 -20 -14 0 -45 -22 -82 -60
-36 -36 -69 -60 -82 -60 -13 0 -43 -23 -79 -60 -36 -37 -66 -60 -80 -60 -14 0
-55 -34 -120 -100 -64 -65 -106 -100 -120 -100 -14 0 -73 -53 -180 -160 -87
-88 -162 -160 -168 -160 -5 0 -12 -9 -15 -19 -3 -14 -15 -21 -38 -23 -31 -3
-34 -6 -37 -40 -2 -21 -8 -38 -14 -38 -6 0 -27 -18 -47 -39 -23 -26 -46 -41
-66 -43 -25 -2 -31 -8 -33 -31 -2 -20 -30 -55 -92 -118 -48 -49 -92 -89 -98
-89 -5 0 -12 9 -15 20 -3 11 -12 20 -21 20 -23 0 -20 -37 4 -45 39 -12 25 -53
-40 -115 -40 -38 -60 -66 -60 -81 0 -15 -15 -37 -40 -59 -26 -23 -40 -44 -40
-60 0 -16 -14 -37 -40 -60 -28 -25 -40 -43 -40 -62 0 -17 -8 -31 -20 -38 -16
-8 -20 -21 -20 -60 0 -39 -4 -52 -20 -60 -17 -9 -20 -21 -20 -80 0 -59 -3 -71
-20 -80 -17 -9 -20 -21 -20 -80 0 -59 3 -71 20 -80 16 -8 20 -21 20 -58 0 -36
5 -50 20 -60 11 -7 20 -19 20 -27 0 -8 7 -15 15 -15 8 0 20 -9 27 -20 8 -12
24 -20 40 -20 17 0 31 -8 38 -20 10 -19 21 -20 180 -20 159 0 170 1 180 20 8
16 21 20 60 20 39 0 52 4 60 20 6 12 21 20 36 20 35 0 324 289 324 324 0 15 8
30 20 36 16 8 20 21 20 60 0 39 4 52 20 60 17 9 20 21 20 80 0 59 -3 71 -20
80 -13 7 -20 21 -20 40 0 19 -7 33 -19 40 -12 6 -21 23 -23 43 -3 32 -3 32
-152 35 -149 3 -149 3 -186 -38 -21 -23 -46 -40 -59 -40 -32 0 -161 -132 -161
-164 0 -15 -8 -30 -20 -36 -13 -7 -20 -21 -20 -40 0 -19 -7 -33 -20 -40 -19
-10 -20 -19 -18 -123 2 -92 6 -112 18 -112 12 0 16 18 18 92 2 80 5 94 22 103
11 6 20 21 20 35 0 33 169 205 202 205 14 0 36 15 58 40 23 27 43 40 60 40 14
0 33 9 43 20 9 11 26 20 37 20 11 0 28 -9 37 -20 10 -11 28 -20 42 -20 15 0
35 -13 53 -32 24 -28 28 -40 28 -94 0 -53 -3 -65 -20 -74 -13 -7 -20 -21 -20
-40 0 -19 -7 -33 -20 -40 -12 -7 -20 -21 -20 -38 0 -19 -12 -37 -40 -62 -25
-22 -40 -44 -40 -58 0 -31 -50 -80 -86 -84 -24 -2 -30 -8 -32 -32 -5 -38 -53
-86 -86 -86 -15 0 -30 -8 -36 -20 -7 -13 -21 -20 -40 -20 -19 0 -33 -7 -40
-20 -8 -16 -21 -20 -58 -20 -36 0 -52 -5 -65 -20 -15 -18 -27 -20 -85 -18 -52
2 -67 7 -70 19 -2 10 5 19 18 22 11 3 20 12 20 21 0 23 -37 20 -45 -4 -9 -30
-51 -25 -86 9 -29 29 -29 29 -29 195 0 155 1 166 20 176 13 7 20 21 20 40 0
19 7 33 20 40 13 7 20 21 20 40 0 19 7 33 20 40 12 7 20 21 20 38 0 19 12 37
40 62 25 22 40 44 40 59 0 15 20 43 60 81 36 35 60 66 60 79 0 22 168 201 189
201 6 0 11 6 11 13 0 7 17 28 38 46 23 21 39 45 42 65 4 27 10 32 40 36 32 5
35 8 38 43 3 29 7 37 23 37 10 0 19 -6 19 -12 1 -19 47 -68 65 -68 8 0 15 7
15 15 0 18 -49 64 -68 65 -27 0 -7 35 22 38 39 5 123 90 128 128 2 24 8 30 32
32 21 3 63 38 167 143 91 92 145 139 159 139 14 0 50 29 100 80 50 51 86 80
100 80 14 0 50 29 100 80 53 55 86 80 102 80 14 0 36 15 58 40 22 25 44 40 59
40 15 0 43 20 81 60 38 40 66 60 81 60 15 0 37 15 59 40 40 45 84 55 95 20 3
-11 15 -20 26 -20 12 0 19 7 19 20 0 13 -7 20 -20 20 -13 0 -20 7 -20 20 0 18
7 20 55 20 44 0 56 4 65 20 7 13 21 20 40 20 19 0 33 7 40 20 7 13 21 20 40
20 19 0 33 7 40 20 9 17 21 20 80 20 59 0 71 3 80 20 10 18 21 20 116 20 97 0
107 2 125 23 19 22 19 22 38 -1 18 -21 27 -23 108 -20 74 3 88 6 91 21 3 13
-3 17 -27 17 -19 0 -38 8 -48 20 -17 19 -30 20 -363 20 -333 0 -346 -1 -363
-20 -14 -16 -29 -20 -82 -20 -54 0 -66 -3 -75 -20 -8 -16 -21 -20 -60 -20 -39
0 -52 -4 -60 -20 -7 -13 -21 -20 -40 -20 -19 0 -33 -7 -40 -20 -7 -13 -21 -20
-40 -20 -19 0 -33 -7 -40 -20 -7 -13 -21 -20 -40 -20 -19 0 -33 -7 -40 -20 -7
-13 -21 -20 -40 -20 -19 0 -33 -7 -40 -20 -6 -12 -21 -20 -36 -20 -17 0 -40
-14 -65 -40 -25 -25 -49 -40 -64 -40 -14 0 -29 -8 -35 -20 -7 -12 -21 -20 -37
-20 -18 0 -38 -13 -65 -42 -38 -43 -38 -43 -57 -18 -19 25 -19 25 -119 -78
-71 -72 -107 -102 -124 -102 -15 0 -35 -14 -57 -40 -19 -22 -40 -40 -47 -40
-8 0 -14 -6 -14 -13 0 -19 -56 -67 -80 -67 -14 0 -62 -41 -140 -120 -78 -79
-126 -120 -140 -120 -21 0 -200 -171 -200 -191 0 -5 -9 -9 -20 -9 -11 0 -20
-5 -20 -10 0 -6 -103 -114 -229 -240 -175 -174 -236 -229 -258 -232 -26 -3
-28 -7 -31 -51 -3 -48 -3 -48 -203 -248 -109 -109 -199 -204 -199 -209 0 -6
-9 -10 -20 -10 -11 0 -20 -6 -20 -14 0 -7 -18 -28 -40 -47 -31 -27 -40 -41
-40 -66 0 -18 -4 -33 -10 -33 -5 0 -91 -81 -190 -180 -136 -136 -186 -180
-204 -180 -45 0 -39 21 23 80 39 37 61 65 61 80 0 14 22 43 60 80 37 36 60 66
60 80 0 27 52 80 79 80 12 0 26 -9 33 -20 14 -23 48 -27 48 -6 0 7 -18 28 -40
47 -37 32 -52 59 -31 59 5 0 50 40 100 89 60 59 91 97 91 111 0 14 22 44 59
79 41 40 60 66 63 87 3 25 8 30 38 34 30 4 36 9 38 34 3 22 54 79 223 247 143
143 219 225 219 239 0 28 212 240 241 240 27 0 79 52 79 79 0 27 212 241 239
241 26 0 121 93 121 119 0 15 70 91 220 241 169 169 220 225 220 244 0 15 8
30 20 36 19 10 21 19 18 83 -3 72 -3 72 -73 75 -60 2 -72 0 -87 -18z m1242
-80 c0 -13 -7 -20 -20 -20 -13 0 -20 7 -20 20 0 13 7 20 20 20 13 0 20 -7 20
-20z m-85 -40 c0 -18 -52 -27 -67 -12 -17 17 2 33 35 30 20 -2 32 -8 32 -18z
m-115 -40 c0 -13 -7 -20 -20 -20 -13 0 -20 7 -20 20 0 13 7 20 20 20 13 0 20
-7 20 -20z m-3200 -2640 c0 -13 -7 -20 -20 -20 -13 0 -20 7 -20 20 0 13 7 20
20 20 13 0 20 -7 20 -20z M4640 5340 c0 -13 7 -20 20 -20 13 0 20 7 20 20 0
13 -7 20 -20 20 -13 0 -20 -7 -20 -20z M4920 4900 c0 -13 7 -20 20 -20 13 0
20 7 20 20 0 13 -7 20 -20 20 -13 0 -20 -7 -20 -20z M4000 4820 c0 -13 7 -20
20 -20 13 0 20 7 20 20 0 13 -7 20 -20 20 -13 0 -20 -7 -20 -20z M4880 4821
c0 -15 6 -21 21 -21 25 0 22 33 -4 38 -12 2 -17 -3 -17 -17z M4560 4660 c0
-13 7 -20 20 -20 13 0 20 7 20 20 0 13 -7 20 -20 20 -13 0 -20 -7 -20 -20z
M10157 4420 c-9 -11 -28 -20 -42 -20 -14 0 -29 -8 -35 -20 -6 -12 -21 -20 -36
-20 -19 0 -51 -26 -124 -100 -62 -63 -106 -100 -119 -100 -32 0 -279 -250
-283 -287 -2 -24 -8 -29 -38 -33 -32 -5 -35 -8 -38 -42 -2 -29 -8 -38 -21 -38
-10 0 -21 9 -24 20 -3 11 -12 20 -21 20 -9 0 -16 -8 -16 -20 0 -13 7 -20 20
-20 35 0 22 -21 -60 -101 -52 -50 -80 -84 -80 -99 0 -14 -28 -49 -79 -99 -57
-56 -80 -86 -83 -107 -3 -25 -8 -30 -38 -34 -30 -4 -35 -9 -38 -34 -5 -38 -53
-86 -86 -86 -15 0 -30 -8 -36 -20 -7 -13 -21 -20 -41 -20 -22 0 -32 -5 -36
-20 -3 -11 -14 -20 -24 -20 -26 0 -25 36 1 43 14 4 20 14 20 35 0 22 6 32 20
37 25 8 26 31 1 45 -12 6 -21 23 -23 43 -3 28 -7 32 -35 35 -35 3 -40 -4 -45
-78 -3 -32 -6 -35 -38 -40 -31 -4 -35 -9 -38 -37 -2 -20 -11 -37 -22 -43 -11
-6 -20 -23 -22 -43 -3 -28 -7 -33 -37 -37 -41 -6 -51 -24 -22 -40 32 -17 26
-40 -10 -40 -22 0 -41 -11 -70 -40 -31 -31 -47 -40 -74 -40 -87 0 -89 39 -5
120 48 46 60 64 60 89 0 24 4 31 20 31 11 0 20 6 20 13 0 19 56 67 79 67 27 0
126 93 117 109 -4 6 -36 11 -76 11 -59 0 -71 -3 -80 -20 -8 -16 -21 -20 -58
-20 -42 0 -51 -4 -82 -40 -40 -45 -84 -55 -95 -20 -3 11 -15 20 -26 20 -12 0
-19 -7 -19 -20 0 -13 7 -20 20 -20 13 0 20 -7 20 -19 0 -16 -8 -20 -37 -23
-34 -3 -38 -6 -41 -32 -4 -35 -52 -86 -82 -86 -12 0 -45 -24 -81 -60 -40 -40
-68 -60 -84 -60 -41 0 -40 21 4 60 25 22 41 46 41 59 0 15 33 55 101 122 85
84 100 103 97 126 -3 26 -7 28 -55 31 -44 3 -53 0 -63 -17 -6 -13 -21 -21 -36
-21 -19 0 -59 -34 -164 -140 -92 -93 -146 -140 -160 -140 -12 0 -39 -18 -61
-40 -29 -29 -48 -40 -69 -40 -35 0 -41 24 -10 40 25 14 26 37 1 45 -11 3 -22
12 -25 20 -11 29 -49 15 -102 -37 -30 -29 -54 -61 -54 -71 0 -10 13 -32 29
-48 26 -26 36 -29 93 -29 51 0 67 4 81 20 9 11 27 20 38 20 13 0 38 17 60 42
45 50 56 45 61 -27 3 -50 3 -50 92 -53 79 -2 91 0 108 18 10 11 28 20 40 20
12 0 37 18 60 43 38 42 38 42 57 18 23 -30 41 -20 41 25 0 27 4 34 20 34 22 0
24 -7 20 -87 -2 -47 2 -56 28 -83 36 -36 67 -38 93 -7 19 22 19 22 38 -3 20
-25 20 -25 43 -2 14 12 34 22 46 22 12 0 26 9 32 20 7 12 21 20 38 20 19 0 37
12 62 40 35 40 35 40 123 40 80 0 89 2 94 20 7 26 43 27 43 1 0 -10 -9 -21
-20 -24 -14 -4 -20 -14 -20 -35 0 -22 -6 -32 -20 -37 -11 -3 -20 -15 -20 -26
0 -15 7 -19 31 -19 20 0 37 -8 49 -22 18 -23 18 -23 138 100 77 78 128 122
141 122 12 0 52 32 100 80 58 57 87 80 105 80 15 0 30 8 36 20 9 16 21 20 65
20 47 0 55 -3 55 -19 0 -10 -9 -21 -20 -24 -14 -3 -20 -14 -20 -32 0 -18 -15
-41 -50 -75 -48 -49 -50 -50 -112 -50 -51 0 -67 -4 -81 -20 -9 -11 -25 -20
-35 -20 -22 0 -122 -89 -122 -108 0 -6 7 -12 15 -12 8 0 19 -9 25 -20 9 -18
21 -20 100 -20 79 0 91 2 100 20 8 16 21 20 60 20 39 0 52 -4 60 -20 7 -13 21
-20 40 -20 19 0 33 -7 40 -20 6 -12 21 -20 36 -20 33 0 84 -51 84 -84 0 -15 8
-30 20 -36 18 -10 20 -21 20 -120 0 -99 -2 -110 -20 -120 -12 -6 -20 -21 -20
-36 0 -18 -23 -47 -80 -105 -44 -44 -80 -84 -80 -89 0 -6 -8 -10 -19 -10 -10
0 -21 -9 -24 -20 -4 -17 -14 -20 -54 -20 -43 0 -51 -4 -83 -40 -31 -36 -40
-40 -82 -40 -37 0 -50 -4 -58 -20 -9 -18 -21 -20 -100 -20 -79 0 -91 -2 -100
-20 -9 -18 -21 -20 -100 -20 -79 0 -91 -2 -100 -20 -10 -19 -21 -20 -220 -20
-199 0 -210 1 -220 20 -10 19 -21 20 -220 20 -199 0 -210 1 -220 20 -6 12 -21
20 -36 20 -14 0 -34 10 -45 23 -19 22 -19 22 -38 0 -17 -21 -28 -23 -105 -23
-75 0 -87 2 -96 20 -10 18 -21 20 -120 20 -99 0 -110 2 -120 20 -10 18 -21 20
-115 20 -93 0 -107 2 -122 20 -14 16 -30 20 -85 20 -57 0 -69 3 -78 20 -10 18
-21 20 -115 20 -93 0 -107 2 -122 20 -15 17 -30 20 -100 20 -71 0 -86 3 -100
20 -15 17 -30 20 -100 20 -71 0 -86 3 -100 20 -15 17 -30 20 -100 20 -71 0
-86 3 -100 20 -15 17 -30 20 -105 20 -77 0 -89 2 -98 20 -10 18 -21 20 -120
20 -99 0 -110 2 -120 20 -10 18 -21 20 -120 20 -99 0 -110 2 -120 20 -10 19
-21 20 -160 20 -139 0 -150 1 -160 20 -10 19 -21 20 -160 20 -139 0 -150 1
-160 20 -10 19 -21 20 -420 20 -399 0 -410 -1 -420 -20 -9 -18 -21 -20 -100
-20 -79 0 -91 -2 -100 -20 -9 -17 -21 -20 -80 -20 -59 0 -71 -3 -80 -20 -8
-16 -21 -20 -60 -20 -39 0 -52 -4 -60 -20 -7 -13 -21 -20 -40 -20 -19 0 -33
-7 -40 -20 -7 -13 -21 -20 -40 -20 -19 0 -33 -7 -40 -20 -6 -12 -21 -20 -36
-20 -18 0 -62 -37 -174 -150 -149 -148 -150 -150 -150 -194 0 -35 -5 -48 -20
-56 -16 -8 -20 -21 -20 -60 0 -39 -4 -52 -20 -60 -18 -10 -20 -21 -20 -140 0
-119 2 -130 20 -140 16 -8 20 -21 20 -60 0 -39 4 -52 20 -60 12 -6 20 -21 20
-36 0 -31 169 -204 199 -204 11 0 38 -18 60 -40 33 -34 46 -40 80 -40 29 0 46
-6 58 -20 16 -18 30 -20 143 -20 113 0 127 2 143 20 13 16 29 20 79 20 61 0
64 -2 98 -40 25 -28 43 -40 62 -40 17 0 31 -8 38 -20 7 -13 21 -20 40 -20 19
0 33 -7 40 -20 8 -16 21 -20 60 -20 39 0 52 -4 60 -20 9 -17 21 -20 80 -20 59
0 71 -3 80 -20 10 -19 21 -20 420 -20 399 0 410 1 420 20 10 18 21 20 120 20
99 0 110 2 120 20 8 16 21 20 60 20 39 0 52 4 60 20 9 17 21 20 80 20 59 0 71
3 80 20 8 16 21 20 60 20 39 0 52 4 60 20 7 13 21 20 40 20 19 0 33 7 40 20 8
16 21 20 60 20 39 0 52 4 60 20 7 13 21 20 40 20 19 0 33 7 40 20 8 16 21 20
60 20 39 0 52 4 60 20 7 13 21 20 40 20 19 0 33 7 40 20 8 16 21 20 60 20 39
0 52 4 60 20 8 16 21 20 60 20 39 0 52 4 60 20 7 13 21 20 40 20 19 0 33 7 40
20 8 16 21 20 60 20 39 0 52 4 60 20 7 13 21 20 40 20 19 0 33 7 40 20 9 17
21 20 76 20 59 0 68 -3 95 -29 17 -17 29 -40 29 -55 0 -15 8 -30 20 -36 16 -8
20 -21 20 -60 0 -39 4 -52 20 -60 18 -9 20 -21 20 -100 0 -79 -2 -91 -20 -100
-13 -7 -20 -21 -20 -40 0 -19 -7 -33 -20 -40 -13 -7 -20 -21 -20 -40 0 -19 -7
-33 -20 -40 -12 -6 -20 -21 -20 -36 0 -32 -50 -84 -80 -84 -14 0 -44 -23 -80
-60 -38 -40 -66 -60 -81 -60 -15 0 -37 -15 -59 -40 -31 -36 -40 -40 -82 -40
-37 0 -50 -4 -58 -20 -9 -17 -21 -20 -80 -20 -59 0 -71 -3 -80 -20 -10 -19
-21 -20 -160 -20 -139 0 -150 1 -160 20 -8 16 -21 20 -60 20 -39 0 -52 4 -60
20 -6 12 -21 20 -36 20 -34 0 -124 90 -124 124 0 15 -8 30 -20 36 -16 8 -20
23 -22 83 -2 56 -6 72 -18 72 -12 0 -16 -20 -18 -109 -3 -108 -3 -108 38 -146
24 -22 40 -46 40 -59 0 -31 52 -81 84 -81 15 0 30 -8 36 -20 8 -16 21 -20 60
-20 39 0 52 -4 60 -20 10 -19 21 -20 220 -20 199 0 210 1 220 20 9 17 21 20
80 20 59 0 71 3 80 20 8 16 21 20 60 20 39 0 52 4 60 20 7 13 21 20 40 20 19
0 33 7 40 20 6 12 21 20 36 20 19 0 43 17 83 59 40 41 66 60 87 63 27 3 29 6
32 53 3 43 8 54 43 86 26 24 39 44 39 62 0 16 8 30 20 37 13 7 20 21 20 40 0
19 7 33 20 40 19 10 20 21 20 160 0 139 -1 150 -20 160 -17 9 -20 21 -20 74 0
57 -3 67 -29 95 -16 17 -34 31 -40 31 -6 0 -11 9 -11 20 0 11 7 20 15 20 8 0
19 9 25 20 7 13 21 20 40 20 19 0 33 7 40 20 8 16 21 20 60 20 39 0 52 4 60
20 8 16 21 20 60 20 39 0 52 4 60 20 7 13 21 20 40 20 19 0 33 7 40 20 9 17
21 20 80 20 59 0 71 3 80 20 9 17 21 20 80 20 59 0 71 3 80 20 9 17 21 20 80
20 59 0 71 3 80 20 10 19 21 20 160 20 139 0 150 1 160 20 10 19 21 20 300 20
279 0 290 1 300 20 9 18 21 20 100 20 79 0 91 2 100 20 8 16 21 20 60 20 39 0
52 4 60 20 8 16 21 20 60 20 39 0 52 4 60 20 7 13 21 20 40 20 19 0 33 7 40
20 7 13 21 20 40 20 19 0 33 7 40 20 6 12 21 20 36 20 35 0 204 169 204 204 0
15 8 30 20 36 16 8 20 21 20 60 0 39 4 52 20 60 17 9 20 21 20 80 0 59 -3 71
-20 80 -15 8 -20 21 -20 56 0 42 -4 49 -69 114 -47 47 -78 69 -97 72 -28 3
-29 5 -32 61 -3 52 -1 57 18 57 11 0 20 6 20 13 0 7 27 37 60 67 64 57 72 75
40 83 -16 4 -19 15 -22 78 -3 74 -3 74 -115 77 -104 2 -113 1 -123 -18 -6 -11
-21 -20 -33 -20 -14 0 -43 -22 -80 -60 -56 -58 -87 -75 -87 -46 0 13 85 106
96 106 9 0 144 142 144 151 0 21 27 6 59 -31 19 -22 40 -40 47 -40 21 0 17 34
-6 48 -11 7 -20 21 -20 32 0 28 133 160 161 160 13 0 50 30 99 80 49 50 86 80
99 80 14 0 98 76 251 230 230 230 230 230 230 291 0 54 -3 64 -29 90 -37 37
-106 41 -134 9z m41 -112 c3 -47 3 -47 -247 -298 -169 -168 -258 -250 -272
-250 -13 0 -56 -36 -119 -100 -53 -55 -102 -100 -109 -100 -6 0 -11 14 -11 31
0 25 16 47 100 129 64 63 100 106 100 120 0 14 82 103 251 271 216 216 254
250 277 247 24 -3 27 -7 30 -50z m-1438 -1248 c0 -13 -7 -20 -20 -20 -13 0
-20 7 -20 20 0 13 7 20 20 20 13 0 20 -7 20 -20z m556 -34 c6 -16 -40 -66 -61
-66 -24 0 -17 29 13 55 31 28 41 30 48 11z m-118 -49 c2 -12 -3 -17 -17 -17
-15 0 -21 6 -21 21 0 25 33 22 38 -4z m-4238 -517 c10 -19 21 -20 180 -20 159
0 170 -1 180 -20 10 -18 21 -20 140 -20 119 0 130 -2 140 -20 10 -18 21 -20
120 -20 99 0 110 -2 120 -20 10 -18 21 -20 115 -20 93 0 107 -2 122 -20 15
-17 30 -20 100 -20 71 0 86 -3 100 -20 15 -17 30 -20 100 -20 71 0 86 -3 100
-20 15 -17 30 -20 100 -20 71 0 86 -3 100 -20 15 -17 30 -20 105 -20 77 0 89
-2 98 -20 9 -18 21 -20 95 -20 73 0 88 -3 102 -20 15 -17 30 -20 105 -20 77 0
89 -2 98 -20 10 -18 21 -20 120 -20 98 0 110 -2 120 -20 9 -17 23 -20 123 -22
97 -3 112 -5 115 -20 3 -14 -3 -18 -27 -18 -19 0 -38 -8 -48 -20 -14 -16 -30
-20 -85 -20 -57 0 -69 -3 -78 -20 -14 -27 -61 -27 -78 0 -20 33 -40 25 -44
-17 -3 -38 -3 -38 -75 -41 -60 -2 -75 -6 -83 -22 -8 -16 -21 -20 -60 -20 -39
0 -52 -4 -60 -20 -8 -16 -21 -20 -60 -20 -39 0 -52 -4 -60 -20 -7 -13 -21 -20
-40 -20 -19 0 -33 -7 -40 -20 -8 -16 -21 -20 -56 -20 -44 0 -49 3 -124 80 -57
59 -85 80 -104 80 -15 0 -30 8 -36 20 -7 12 -21 20 -38 20 -19 0 -37 12 -62
40 -31 36 -40 40 -82 40 -37 0 -50 4 -58 20 -7 13 -21 20 -40 20 -19 0 -33 7
-40 20 -9 17 -21 20 -80 20 -59 0 -71 3 -80 20 -9 17 -21 20 -80 20 -59 0 -71
3 -80 20 -10 18 -21 20 -120 20 -99 0 -110 2 -120 20 -10 19 -21 20 -200 20
-179 0 -190 1 -200 20 -10 19 -21 20 -160 20 -139 0 -150 -1 -160 -20 -10 -19
-21 -20 -180 -20 -159 0 -170 -1 -180 -20 -10 -18 -21 -20 -120 -20 -99 0
-110 -2 -120 -20 -9 -17 -21 -20 -80 -20 -59 0 -71 -3 -80 -20 -8 -16 -21 -20
-60 -20 -39 0 -52 -4 -60 -20 -7 -13 -21 -20 -40 -20 -19 0 -33 -7 -40 -20 -8
-16 -21 -20 -60 -20 -39 0 -52 -4 -60 -20 -6 -12 -21 -20 -36 -20 -19 0 -43
-17 -84 -60 -36 -37 -66 -60 -79 -60 -31 0 -121 -92 -121 -124 0 -15 -8 -30
-20 -36 -13 -7 -20 -21 -20 -40 0 -19 -7 -33 -20 -40 -18 -9 -20 -21 -20 -100
0 -79 2 -91 20 -100 16 -8 20 -21 20 -60 0 -39 4 -52 20 -60 25 -13 28 -65 4
-74 -9 -3 -85 -6 -170 -6 -142 0 -156 2 -171 20 -10 11 -30 20 -45 20 -17 0
-31 7 -38 20 -6 11 -21 20 -34 20 -32 0 -84 49 -88 85 -3 26 -8 31 -38 35 -31
4 -35 9 -38 37 -2 20 -11 37 -23 43 -12 7 -19 21 -19 40 0 19 -7 33 -20 40
-19 10 -20 21 -20 180 0 159 1 170 20 180 13 7 20 21 20 40 0 19 7 33 20 40
12 6 20 21 20 36 0 33 169 204 202 204 14 0 37 16 58 40 25 28 43 40 62 40 17
0 31 8 38 20 7 13 21 20 40 20 19 0 33 7 40 20 8 16 21 20 60 20 39 0 52 4 60
20 9 17 21 20 80 20 59 0 71 3 80 20 9 18 21 20 100 20 79 0 91 2 100 20 10
20 21 20 540 20 519 0 530 0 540 -20z m560 -400 c10 -19 21 -20 160 -20 139 0
150 -1 160 -20 9 -18 21 -20 100 -20 79 0 91 -2 100 -20 8 -16 21 -20 60 -20
39 0 52 -4 60 -20 8 -16 21 -20 60 -20 39 0 52 -4 60 -20 7 -13 21 -20 40 -20
19 0 33 -7 40 -20 7 -13 21 -20 40 -20 19 0 33 -7 40 -19 6 -12 23 -21 43 -23
28 -3 32 -7 35 -35 2 -24 -1 -33 -17 -38 -12 -3 -21 -13 -21 -20 0 -19 47 -65
65 -65 23 0 18 37 -5 43 -11 3 -20 12 -20 21 0 13 11 16 51 16 43 0 55 -5 80
-30 42 -42 38 -84 -8 -88 -20 -2 -37 -11 -43 -23 -7 -12 -21 -19 -40 -19 -19
0 -33 -7 -40 -20 -8 -16 -21 -20 -60 -20 -39 0 -52 -4 -60 -20 -7 -13 -21 -20
-40 -20 -19 0 -33 -7 -40 -20 -8 -16 -21 -20 -60 -20 -39 0 -52 -4 -60 -20 -7
-13 -21 -20 -40 -20 -19 0 -33 -7 -40 -20 -7 -13 -21 -20 -40 -20 -19 0 -33
-7 -40 -20 -7 -13 -21 -20 -40 -20 -19 0 -33 -7 -40 -20 -8 -16 -21 -20 -60
-20 -39 0 -52 -4 -60 -20 -7 -13 -21 -20 -40 -20 -19 0 -33 -7 -40 -20 -7 -13
-21 -20 -40 -20 -19 0 -33 -7 -40 -20 -8 -16 -21 -20 -60 -20 -39 0 -52 -4
-60 -20 -8 -16 -21 -20 -60 -20 -39 0 -52 -4 -60 -20 -9 -17 -21 -20 -80 -20
-59 0 -71 -3 -80 -20 -9 -17 -21 -20 -80 -20 -59 0 -71 -3 -80 -20 -10 -18
-21 -20 -120 -20 -99 0 -110 -2 -120 -20 -10 -19 -21 -20 -260 -20 -239 0
-250 1 -260 20 -10 18 -21 20 -120 20 -99 0 -110 2 -120 20 -8 16 -21 20 -60
20 -39 0 -52 4 -60 20 -8 16 -21 20 -60 20 -39 0 -52 4 -60 20 -6 12 -21 20
-36 20 -34 0 -164 129 -164 164 0 16 7 27 20 31 24 8 27 45 4 45 -9 0 -18 -9
-21 -20 -6 -22 -42 -28 -44 -7 0 6 0 39 1 72 1 47 5 63 20 74 12 8 20 25 20
42 0 18 7 32 20 39 12 6 20 21 20 36 0 32 90 124 121 124 21 0 79 53 79 72 0
16 30 7 40 -12 18 -33 38 -24 42 18 3 37 3 37 55 40 40 2 55 8 63 23 6 11 21
19 36 19 14 0 34 10 45 23 19 22 19 22 39 -3 20 -25 20 -25 58 18 38 41 40 42
105 42 56 0 68 3 77 20 9 18 21 20 100 20 79 0 91 2 100 20 10 19 21 20 160
20 139 0 150 1 160 20 10 19 21 20 260 20 239 0 250 -1 260 -20z M3840 1220
c0 -13 7 -20 20 -20 13 0 20 7 20 20 0 13 -7 20 -20 20 -13 0 -20 -7 -20 -20z
M5480 1220 c0 -13 7 -20 20 -20 13 0 20 7 20 20 0 13 -7 20 -20 20 -13 0 -20
-7 -20 -20z M4680 4380 c0 -13 7 -20 20 -20 13 0 20 7 20 20 0 13 -7 20 -20
20 -13 0 -20 -7 -20 -20z M4280 4300 c0 -13 7 -20 20 -20 13 0 20 7 20 20 0
13 -7 20 -20 20 -13 0 -20 -7 -20 -20z M5120 4300 c0 -13 7 -20 20 -20 13 0
20 7 20 20 0 13 -7 20 -20 20 -13 0 -20 -7 -20 -20z M4537 4278 c-9 -5 -17
-16 -17 -24 0 -11 9 -14 38 -12 23 2 37 8 37 17 0 19 -37 31 -58 19z M3320
4180 c0 -13 7 -20 20 -20 13 0 20 7 20 20 0 13 -7 20 -20 20 -13 0 -20 -7 -20
-20z M4400 4180 c0 -13 7 -20 20 -20 13 0 20 7 20 20 0 13 -7 20 -20 20 -13 0
-20 -7 -20 -20z M10240 3940 c0 -13 7 -20 20 -20 13 0 20 7 20 20 0 13 -7 20
-20 20 -13 0 -20 -7 -20 -20z M4560 3900 c0 -13 7 -20 20 -20 13 0 20 7 20 20
0 13 -7 20 -20 20 -13 0 -20 -7 -20 -20z M4440 3700 c0 -13 7 -20 20 -20 13 0
20 7 20 20 0 13 -7 20 -20 20 -13 0 -20 -7 -20 -20z M2800 3660 c0 -13 7 -20
20 -20 13 0 20 7 20 20 0 13 -7 20 -20 20 -13 0 -20 -7 -20 -20z M9160 3620
c0 -13 7 -20 20 -20 13 0 20 7 20 20 0 13 -7 20 -20 20 -13 0 -20 -7 -20 -20z
M9080 3500 c0 -13 7 -20 20 -20 13 0 20 7 20 20 0 13 -7 20 -20 20 -13 0 -20
-7 -20 -20z M2880 3380 c0 -13 7 -20 20 -20 13 0 20 7 20 20 0 13 -7 20 -20
20 -13 0 -20 -7 -20 -20z M3000 3380 c0 -13 7 -20 20 -20 13 0 20 7 20 20 0
13 -7 20 -20 20 -13 0 -20 -7 -20 -20z M4520 3380 c0 -13 7 -20 20 -20 13 0
20 7 20 20 0 13 -7 20 -20 20 -13 0 -20 -7 -20 -20z M5517 3380 c-5 -18 -14
-20 -116 -20 -100 0 -111 -2 -121 -20 -7 -12 -21 -20 -38 -20 -19 0 -37 -12
-62 -40 -23 -26 -44 -40 -60 -40 -16 0 -37 -14 -60 -40 -25 -28 -43 -40 -62
-40 -36 0 -40 -16 -36 -160 l3 -115 112 -3 c104 -2 113 -1 123 18 7 12 21 20
38 20 16 0 32 8 40 20 20 33 40 25 44 -17 3 -38 3 -38 92 -41 79 -2 91 0 108
18 10 11 28 20 39 20 11 0 47 26 81 60 39 39 68 60 83 60 15 0 26 8 30 20 3
11 15 20 26 20 12 0 19 -7 19 -20 0 -11 -4 -20 -10 -20 -5 0 -33 -23 -60 -50
-40 -40 -51 -57 -48 -78 3 -27 4 -27 91 -30 86 -3 88 -2 117 27 17 16 30 40
30 53 0 13 14 37 31 53 31 30 31 30 49 8 15 -20 28 -23 82 -23 53 0 65 3 76
21 23 36 37 16 42 -62 5 -74 5 -74 114 -77 108 -3 108 -3 165 58 31 33 62 60
68 60 8 0 13 -22 15 -57 3 -58 3 -58 111 -61 108 -3 108 -3 148 38 25 25 49
40 64 40 14 0 29 8 35 20 7 13 21 20 41 20 22 0 32 5 36 20 3 11 14 20 24 20
26 0 25 -36 -2 -43 -18 -5 -20 -12 -17 -59 3 -53 3 -53 112 -56 108 -3 108 -3
146 38 21 23 46 40 59 40 12 0 34 14 49 30 44 50 88 93 121 120 40 32 40 50
-1 50 -26 0 -41 -9 -68 -40 -22 -25 -44 -40 -59 -40 -15 0 -43 -20 -81 -60
-41 -43 -65 -60 -83 -60 -43 0 -42 20 2 60 25 22 41 46 41 59 0 15 33 55 101
122 85 84 100 103 97 126 -3 27 -5 28 -71 31 -68 3 -68 3 -127 -58 -36 -37
-66 -60 -80 -60 -14 0 -49 -28 -100 -80 -50 -51 -86 -80 -100 -80 -12 0 -39
-18 -61 -40 -23 -23 -49 -40 -62 -40 -12 0 -28 -9 -35 -20 -20 -32 -42 -25
-42 13 0 25 9 40 40 67 25 22 40 44 40 58 0 16 26 49 81 103 67 66 80 83 77
106 -3 27 -5 28 -72 31 -68 3 -68 3 -106 -38 -22 -24 -46 -40 -59 -40 -16 0
-60 -38 -141 -120 -64 -66 -123 -120 -129 -120 -6 0 -11 -6 -11 -13 0 -21 -57
-67 -84 -67 -34 0 -44 20 -18 38 15 10 22 25 22 48 0 39 23 47 40 14 6 -11 17
-20 25 -20 22 0 18 38 -5 45 -42 13 -24 52 61 136 67 66 80 83 77 106 -3 27
-5 28 -71 31 -67 3 -67 3 -207 -138 -92 -93 -146 -140 -160 -140 -12 0 -30
-10 -39 -22 -22 -26 -41 -16 -41 22 0 19 -7 33 -20 40 -11 6 -20 17 -20 24 0
8 9 16 20 19 14 4 20 14 20 33 0 19 12 38 41 65 32 30 40 43 37 66 -3 27 -5
28 -72 31 -68 3 -68 3 -106 -38 -22 -24 -46 -40 -60 -40 -14 0 -43 -21 -80
-60 -63 -65 -103 -79 -115 -39 -4 12 -14 19 -23 17 -25 -5 -27 -35 -3 -43 13
-4 21 -15 21 -30 0 -30 -52 -85 -80 -85 -12 0 -39 -18 -61 -40 -25 -25 -49
-40 -64 -40 -34 0 -43 21 -17 38 13 8 22 25 22 39 0 32 49 80 86 85 27 3 29 6
32 52 3 46 8 54 63 106 32 31 59 61 59 68 0 8 -23 12 -75 12 -64 0 -76 -3 -85
-20 -7 -13 -21 -20 -40 -20 -38 0 -49 20 -22 38 12 8 22 21 22 28 0 22 -37 16
-43 -6z m-39 -132 c3 -22 -10 -40 -66 -97 -38 -39 -74 -71 -81 -71 -6 0 -11
-6 -11 -13 0 -21 -57 -67 -84 -67 -15 0 -30 -8 -36 -20 -9 -16 -21 -20 -65
-20 -33 0 -55 4 -55 11 0 6 66 77 148 159 147 149 147 149 197 147 46 -2 50
-4 53 -29z M5280 3100 c0 -13 7 -20 20 -20 13 0 20 7 20 20 0 13 -7 20 -20 20
-13 0 -20 -7 -20 -20z M2760 3300 c0 -13 7 -20 20 -20 13 0 20 7 20 20 0 13
-7 20 -20 20 -13 0 -20 -7 -20 -20z M3320 3300 c0 -13 7 -20 20 -20 13 0 20 7
20 20 0 13 -7 20 -20 20 -13 0 -20 -7 -20 -20z M3400 3140 c0 -13 7 -20 20
-20 13 0 20 7 20 20 0 13 -7 20 -20 20 -13 0 -20 -7 -20 -20z M8480 3140 c0
-13 7 -20 20 -20 13 0 20 7 20 20 0 13 -7 20 -20 20 -13 0 -20 -7 -20 -20z
M2320 3020 c0 -13 7 -20 20 -20 13 0 20 7 20 20 0 13 -7 20 -20 20 -13 0 -20
-7 -20 -20z M9520 3020 c0 -13 7 -20 20 -20 13 0 20 7 20 20 0 13 -7 20 -20
20 -13 0 -20 -7 -20 -20z M920 2940 c0 -13 7 -20 20 -20 13 0 20 7 20 20 0 13
-7 20 -20 20 -13 0 -20 -7 -20 -20z M3120 2860 c0 -13 7 -20 20 -20 13 0 20 7
20 20 0 13 -7 20 -20 20 -13 0 -20 -7 -20 -20z M3920 2819 c0 -14 5 -19 17
-17 26 5 29 38 4 38 -15 0 -21 -6 -21 -21z M1880 2700 c0 -13 7 -20 20 -20 13
0 20 7 20 20 0 13 -7 20 -20 20 -13 0 -20 -7 -20 -20z M9360 2660 c0 -13 7
-20 20 -20 13 0 20 7 20 20 0 13 -7 20 -20 20 -13 0 -20 -7 -20 -20z M9360
2260 c0 -13 7 -20 20 -20 13 0 20 7 20 20 0 13 -7 20 -20 20 -13 0 -20 -7 -20
-20z M7000 1540 c0 -13 7 -20 20 -20 13 0 20 7 20 20 0 13 -7 20 -20 20 -13 0
-20 -7 -20 -20z"/>
</g>
</svg>
